<svg width="19" height="15" viewBox="0 0 19 15" fill="none" xmlns="http://www.w3.org/2000/svg">
<path fill-rule="evenodd" clip-rule="evenodd" d="M1.07394 1.07394C0 2.14788 0 3.87637 0 7.33333C0 10.7903 0 12.5188 1.07394 13.5927C2.14788 14.6667 3.87637 14.6667 7.33333 14.6667H11C14.457 14.6667 16.1854 14.6667 17.2594 13.5927C18.3333 12.5188 18.3333 10.7903 18.3333 7.33333C18.3333 3.87637 18.3333 2.14788 17.2594 1.07394C16.1854 0 14.457 0 11 0H7.33333C3.87637 0 2.14788 0 1.07394 1.07394ZM15.1948 3.22654C15.4379 3.51823 15.3985 3.95174 15.1068 4.19482L13.0934 5.87269C12.2809 6.54979 11.6223 7.09859 11.0411 7.47241C10.4356 7.86182 9.84599 8.1078 9.16667 8.1078C8.48735 8.1078 7.8977 7.86182 7.29225 7.47241C6.71102 7.09859 6.05249 6.5498 5.23999 5.8727L3.22654 4.19482C2.93485 3.95174 2.89544 3.51823 3.13851 3.22654C3.38159 2.93485 3.8151 2.89544 4.10679 3.13851L6.08578 4.78767C6.94099 5.50035 7.53475 5.99355 8.03603 6.31595C8.52128 6.62804 8.85035 6.7328 9.16667 6.7328C9.48298 6.7328 9.81205 6.62804 10.2973 6.31595C10.7986 5.99355 11.3923 5.50035 12.2476 4.78767L14.2265 3.13851C14.5182 2.89544 14.9517 2.93485 15.1948 3.22654Z" fill="white"/>
</svg>
