<svg width="17" height="19" viewBox="0 0 17 19" fill="none" xmlns="http://www.w3.org/2000/svg">
<path fill-rule="evenodd" clip-rule="evenodd" d="M0.346056 2.82554C0 3.31859 0 4.78415 0 7.71527V9.15875C0 14.327 3.88572 16.835 6.32368 17.9C6.98501 18.1889 7.31568 18.3333 8.25 18.3333C9.18432 18.3333 9.51499 18.1889 10.1763 17.9C12.6143 16.835 16.5 14.327 16.5 9.15875V7.71527C16.5 4.78415 16.5 3.31859 16.1539 2.82554C15.8079 2.33249 14.4299 1.86079 11.6738 0.917394L11.1488 0.737658C9.7121 0.245886 8.99377 0 8.25 0C7.50623 0 6.7879 0.245886 5.35125 0.737657L4.82617 0.917393C2.07013 1.86079 0.692112 2.33249 0.346056 2.82554ZM11.0545 7.79122C11.3074 7.50799 11.2828 7.07338 10.9996 6.8205C10.7163 6.56762 10.2817 6.59222 10.0288 6.87545L7.26786 9.96774L6.47117 9.07545C6.21828 8.79222 5.78368 8.76762 5.50045 9.0205C5.21722 9.27338 5.19262 9.70799 5.4455 9.99122L6.75503 11.4579C6.88546 11.604 7.07201 11.6875 7.26786 11.6875C7.4637 11.6875 7.65025 11.604 7.78069 11.4579L11.0545 7.79122Z" fill="white"/>
</svg>
