<svg width="16" height="14" viewBox="0 0 16 14" fill="none" xmlns="http://www.w3.org/2000/svg">
<path d="M6.10283 0.522616L1.53982 4.57863C0.686788 5.33688 0.260272 5.716 0.103089 6.16368C-0.0349436 6.55682 -0.0349436 6.98524 0.103089 7.37838C0.260272 7.82606 0.686788 8.20518 1.53982 8.96343L6.10283 13.0194C6.48994 13.3635 6.68349 13.5356 6.84789 13.5417C6.99071 13.5471 7.12785 13.4855 7.21874 13.3752C7.32337 13.2482 7.32337 12.9893 7.32337 12.4713V9.91389C9.54911 9.91389 11.9 10.6287 13.6165 11.8977C14.5102 12.5584 14.957 12.8887 15.1272 12.8757C15.2931 12.863 15.3984 12.7982 15.4845 12.6558C15.5728 12.5097 15.4948 12.0533 15.3388 11.1405C14.3259 5.21321 10.2468 3.62817 7.32337 3.62817V1.07072C7.32337 0.552786 7.32337 0.29382 7.21874 0.166859C7.12785 0.0565612 6.99071 -0.00502426 6.84789 0.000321377C6.68349 0.0064745 6.48994 0.178522 6.10283 0.522616Z" fill="white"/>
</svg>
