<svg width="22" height="22" viewBox="0 0 22 22" fill="none" xmlns="http://www.w3.org/2000/svg">
<path fill-rule="evenodd" clip-rule="evenodd" d="M11.0007 14.4374C11.3803 14.4374 11.6882 14.1296 11.6882 13.7499V3.69174L13.2287 5.489C13.4758 5.77729 13.9098 5.81068 14.1981 5.56357C14.4864 5.31647 14.5197 4.88245 14.2726 4.59417L11.5226 1.38583C11.392 1.23345 11.2014 1.14575 11.0007 1.14575C10.8 1.14575 10.6093 1.23345 10.4787 1.38583L7.72866 4.59417C7.48156 4.88245 7.51495 5.31647 7.80323 5.56357C8.09152 5.81068 8.52554 5.77729 8.77264 5.489L10.3132 3.69174L10.3132 13.7499C10.3132 14.1296 10.621 14.4374 11.0007 14.4374Z" fill="white"/>
<path d="M14.6673 8.24992C14.0236 8.24992 13.7018 8.24992 13.4706 8.40439C13.3705 8.47127 13.2845 8.55723 13.2177 8.65734C13.0632 8.88853 13.0632 9.21037 13.0632 9.85405L13.0632 13.7499C13.0632 14.889 12.1398 15.8124 11.0007 15.8124C9.8616 15.8124 8.93819 14.889 8.93819 13.7499V9.85412C8.93819 9.21038 8.93819 8.8885 8.78369 8.65729C8.71681 8.55722 8.63089 8.47129 8.53082 8.40442C8.29961 8.24992 7.97773 8.24992 7.33398 8.24992C4.74126 8.24992 3.4449 8.24992 2.63944 9.05537C1.83398 9.86083 1.83398 11.157 1.83398 13.7497V14.6664C1.83398 17.2591 1.83398 18.5555 2.63944 19.3609C3.4449 20.1664 4.74126 20.1664 7.33398 20.1664H14.6673C17.26 20.1664 18.5564 20.1664 19.3619 19.3609C20.1673 18.5555 20.1673 17.2591 20.1673 14.6664V13.7497C20.1673 11.157 20.1673 9.86083 19.3619 9.05537C18.5564 8.24992 17.26 8.24992 14.6673 8.24992Z" fill="white"/>
</svg>
