<svg width="17" height="19" viewBox="0 0 17 19" fill="none" xmlns="http://www.w3.org/2000/svg">
<path d="M4.58333 1.375C4.58333 0.615609 5.19894 0 5.95833 0H10.5417C11.3011 0 11.9167 0.615609 11.9167 1.375V2.29167C11.9167 3.05106 11.3011 3.66667 10.5417 3.66667H5.95833C5.19894 3.66667 4.58333 3.05106 4.58333 2.29167V1.375Z" fill="white"/>
<path fill-rule="evenodd" clip-rule="evenodd" d="M3.20833 1.8669C2.05525 1.93159 1.32732 2.11534 0.805456 2.6372C0 3.44265 0 4.73902 0 7.33174V12.8317C0 15.4245 0 16.7208 0.805456 17.5263C1.61091 18.3317 2.90727 18.3317 5.5 18.3317H11C13.5927 18.3317 14.8891 18.3317 15.6945 17.5263C16.5 16.7208 16.5 15.4245 16.5 12.8317V7.33174C16.5 4.73902 16.5 3.44265 15.6945 2.6372C15.1727 2.11534 14.4447 1.93159 13.2917 1.8669V2.29167C13.2917 3.81045 12.0605 5.04167 10.5417 5.04167H5.95833C4.43955 5.04167 3.20833 3.81045 3.20833 2.29167V1.8669ZM2.97917 7.79167C2.97917 7.41197 3.28697 7.10417 3.66667 7.10417H12.8333C13.213 7.10417 13.5208 7.41197 13.5208 7.79167C13.5208 8.17136 13.213 8.47917 12.8333 8.47917H3.66667C3.28697 8.47917 2.97917 8.17136 2.97917 7.79167ZM3.89583 11C3.89583 10.6203 4.20364 10.3125 4.58333 10.3125H11.9167C12.2964 10.3125 12.6042 10.6203 12.6042 11C12.6042 11.3797 12.2964 11.6875 11.9167 11.6875H4.58333C4.20364 11.6875 3.89583 11.3797 3.89583 11ZM4.8125 14.2083C4.8125 13.8286 5.1203 13.5208 5.5 13.5208H11C11.3797 13.5208 11.6875 13.8286 11.6875 14.2083C11.6875 14.588 11.3797 14.8958 11 14.8958H5.5C5.1203 14.8958 4.8125 14.588 4.8125 14.2083Z" fill="white"/>
</svg>
