<svg width="18" height="18" viewBox="0 0 18 18" fill="none" xmlns="http://www.w3.org/2000/svg">
<path d="M0 3.44002C0 1.81838 0 1.00756 0.503779 0.503779C1.00756 0 1.81838 0 3.44002 0C5.06166 0 5.87248 0 6.37626 0.503779C6.88004 1.00756 6.88004 1.81838 6.88004 3.44002V13.7601C6.88004 15.3817 6.88004 16.1925 6.37626 16.6963C5.87248 17.2001 5.06166 17.2001 3.44002 17.2001C1.81838 17.2001 1.00756 17.2001 0.503779 16.6963C0 16.1925 0 15.3817 0 13.7601V3.44002Z" fill="#FFFFFF"/>
<path d="M10.3201 3.44002C10.3201 1.81838 10.3201 1.00756 10.8238 0.503779C11.3276 0 12.1384 0 13.7601 0C15.3817 0 16.1925 0 16.6963 0.503779C17.2001 1.00756 17.2001 1.81838 17.2001 3.44002V13.7601C17.2001 15.3817 17.2001 16.1925 16.6963 16.6963C16.1925 17.2001 15.3817 17.2001 13.7601 17.2001C12.1384 17.2001 11.3276 17.2001 10.8238 16.6963C10.3201 16.1925 10.3201 15.3817 10.3201 13.7601V3.44002Z" fill="#FFFFFF"/>
</svg>
