<svg width="17" height="17" viewBox="0 0 17 17" fill="none" xmlns="http://www.w3.org/2000/svg">
<g style="mix-blend-mode:plus-darker">
<path d="M-0.000976562 6.62402C-0.000976562 5.71094 0.170573 4.85596 0.513672 4.05908C0.856771 3.25667 1.33268 2.55111 1.94141 1.94238C2.55013 1.33366 3.25293 0.857747 4.0498 0.514648C4.85221 0.171549 5.70996 0 6.62305 0C7.53613 0 8.39111 0.171549 9.18799 0.514648C9.9904 0.857747 10.696 1.33366 11.3047 1.94238C11.9134 2.55111 12.3893 3.25667 12.7324 4.05908C13.0755 4.85596 13.2471 5.71094 13.2471 6.62402C13.2471 7.38216 13.1253 8.10156 12.8818 8.78223C12.6439 9.46289 12.3118 10.0799 11.8857 10.6333L15.9448 14.7173C16.0334 14.8058 16.0998 14.9082 16.144 15.0244C16.1938 15.1406 16.2188 15.2651 16.2188 15.3979C16.2188 15.5806 16.1772 15.7466 16.0942 15.896C16.0168 16.0454 15.9061 16.1616 15.7622 16.2446C15.6183 16.3332 15.4523 16.3774 15.2642 16.3774C15.1313 16.3774 15.0041 16.3525 14.8823 16.3027C14.7661 16.2585 14.6582 16.1893 14.5586 16.0952L10.4746 12.0029C9.93229 12.3903 9.33464 12.6947 8.68164 12.916C8.02865 13.1374 7.34245 13.248 6.62305 13.248C5.70996 13.248 4.85221 13.0765 4.0498 12.7334C3.25293 12.3903 2.55013 11.9144 1.94141 11.3057C1.33268 10.6969 0.856771 9.99414 0.513672 9.19727C0.170573 8.39486 -0.000976562 7.53711 -0.000976562 6.62402ZM1.41846 6.62402C1.41846 7.34342 1.55127 8.01855 1.81689 8.64941C2.08805 9.27474 2.46159 9.82536 2.9375 10.3013C3.41895 10.7772 3.97233 11.1507 4.59766 11.4219C5.22852 11.693 5.90365 11.8286 6.62305 11.8286C7.34245 11.8286 8.01481 11.693 8.64014 11.4219C9.271 11.1507 9.82438 10.7772 10.3003 10.3013C10.7762 9.82536 11.1497 9.27474 11.4209 8.64941C11.6921 8.01855 11.8276 7.34342 11.8276 6.62402C11.8276 5.90462 11.6921 5.23226 11.4209 4.60693C11.1497 3.97607 10.7762 3.42269 10.3003 2.94678C9.82438 2.46533 9.271 2.0918 8.64014 1.82617C8.01481 1.55501 7.34245 1.41943 6.62305 1.41943C5.90365 1.41943 5.22852 1.55501 4.59766 1.82617C3.97233 2.0918 3.41895 2.46533 2.9375 2.94678C2.46159 3.42269 2.08805 3.97607 1.81689 4.60693C1.55127 5.23226 1.41846 5.90462 1.41846 6.62402Z" fill="#999999"/>
</g>
</svg>
