<svg width="19" height="18" viewBox="0 0 19 18" fill="none" xmlns="http://www.w3.org/2000/svg">
<g style="mix-blend-mode:plus-darker">
<path d="M3.59424 17.4648C3.42269 17.3376 3.31755 17.166 3.27881 16.9502C3.24561 16.7344 3.28158 16.4771 3.38672 16.1782L5.12158 11.0151L0.688965 7.82764C0.428874 7.64502 0.249023 7.45687 0.149414 7.26318C0.0498047 7.0695 0.0332031 6.87028 0.0996094 6.66553C0.166016 6.46631 0.296061 6.31689 0.489746 6.21729C0.683431 6.11768 0.940755 6.07064 1.26172 6.07617L6.69873 6.10938L8.35059 0.921387C8.4502 0.617025 8.57471 0.38737 8.72412 0.232422C8.87907 0.077474 9.06169 0 9.27197 0C9.48779 0 9.67041 0.077474 9.81982 0.232422C9.97477 0.38737 10.1021 0.617025 10.2017 0.921387L11.8535 6.10938L17.2905 6.07617C17.6115 6.07064 17.8688 6.11768 18.0625 6.21729C18.2562 6.31689 18.3862 6.46631 18.4526 6.66553C18.519 6.87028 18.5024 7.0695 18.4028 7.26318C18.3032 7.45687 18.1234 7.64502 17.8633 7.82764L13.4307 11.0151L15.1655 16.1782C15.2707 16.4771 15.3039 16.7344 15.2651 16.9502C15.2319 17.166 15.1296 17.3376 14.958 17.4648C14.7865 17.5977 14.5928 17.6419 14.377 17.5977C14.1611 17.5589 13.9259 17.4482 13.6714 17.2656L9.27197 14.0366L4.88086 17.2656C4.6263 17.4482 4.39111 17.5589 4.17529 17.5977C3.95947 17.6419 3.76579 17.5977 3.59424 17.4648ZM4.78955 15.8213C4.80062 15.8379 4.82552 15.8324 4.86426 15.8047L8.85693 12.7583C8.98975 12.6532 9.12809 12.6006 9.27197 12.6006C9.42139 12.6006 9.5625 12.6532 9.69531 12.7583L13.688 15.8047C13.7267 15.8324 13.7516 15.8379 13.7627 15.8213C13.7682 15.8102 13.7682 15.7853 13.7627 15.7466L12.1108 10.9985C12.0721 10.8934 12.0527 10.7938 12.0527 10.6997C12.0583 10.6056 12.0859 10.5199 12.1357 10.4424C12.1855 10.3594 12.2575 10.2847 12.3516 10.2183L16.4854 7.36279C16.5241 7.34066 16.5379 7.31852 16.5269 7.29639C16.5213 7.27979 16.4964 7.27148 16.4521 7.27148L11.4302 7.36279C11.2586 7.36833 11.1175 7.33512 11.0068 7.26318C10.8962 7.18571 10.8159 7.0612 10.7661 6.88965L9.32178 2.0835C9.31071 2.03923 9.29411 2.01709 9.27197 2.01709C9.25537 2.01709 9.24154 2.03923 9.23047 2.0835L7.78613 6.88965C7.73633 7.0612 7.65609 7.18571 7.54541 7.26318C7.43473 7.33512 7.29362 7.36833 7.12207 7.36279L2.1001 7.27148C2.05583 7.27148 2.03092 7.27979 2.02539 7.29639C2.01432 7.31852 2.02816 7.34066 2.06689 7.36279L6.20068 10.2183C6.29476 10.2847 6.3667 10.3594 6.4165 10.4424C6.46631 10.5199 6.49121 10.6056 6.49121 10.6997C6.49674 10.7938 6.48014 10.8934 6.44141 10.9985L4.78955 15.7466C4.77848 15.7853 4.77848 15.8102 4.78955 15.8213Z" fill="#333333"/>
</g>
</svg>
