<svg width="19" height="18" viewBox="0 0 19 18" fill="none" xmlns="http://www.w3.org/2000/svg">
<g style="mix-blend-mode:plus-lighter">
<path d="M3.59521 17.4648C3.42367 17.3376 3.31852 17.166 3.27979 16.9502C3.24658 16.7344 3.28255 16.4771 3.3877 16.1782L5.12256 11.0151L0.689941 7.82764C0.42985 7.64502 0.25 7.45687 0.150391 7.26318C0.0507812 7.0695 0.0341797 6.87028 0.100586 6.66553C0.166992 6.46631 0.297038 6.31689 0.490723 6.21729C0.684408 6.11768 0.941732 6.07064 1.2627 6.07617L6.69971 6.10938L8.35156 0.921387C8.45117 0.617025 8.57568 0.38737 8.7251 0.232422C8.88005 0.077474 9.06266 0 9.27295 0C9.48877 0 9.67139 0.077474 9.8208 0.232422C9.97575 0.38737 10.103 0.617025 10.2026 0.921387L11.8545 6.10938L17.2915 6.07617C17.6125 6.07064 17.8698 6.11768 18.0635 6.21729C18.2572 6.31689 18.3872 6.46631 18.4536 6.66553C18.52 6.87028 18.5034 7.0695 18.4038 7.26318C18.3042 7.45687 18.1243 7.64502 17.8643 7.82764L13.4316 11.0151L15.1665 16.1782C15.2716 16.4771 15.3049 16.7344 15.2661 16.9502C15.2329 17.166 15.1305 17.3376 14.959 17.4648C14.7874 17.5977 14.5938 17.6419 14.3779 17.5977C14.1621 17.5589 13.9269 17.4482 13.6724 17.2656L9.27295 14.0366L4.88184 17.2656C4.62728 17.4482 4.39209 17.5589 4.17627 17.5977C3.96045 17.6419 3.76676 17.5977 3.59521 17.4648ZM4.79053 15.8213C4.8016 15.8379 4.8265 15.8324 4.86523 15.8047L8.85791 12.7583C8.99072 12.6532 9.12907 12.6006 9.27295 12.6006C9.42236 12.6006 9.56348 12.6532 9.69629 12.7583L13.689 15.8047C13.7277 15.8324 13.7526 15.8379 13.7637 15.8213C13.7692 15.8102 13.7692 15.7853 13.7637 15.7466L12.1118 10.9985C12.0731 10.8934 12.0537 10.7938 12.0537 10.6997C12.0592 10.6056 12.0869 10.5199 12.1367 10.4424C12.1865 10.3594 12.2585 10.2847 12.3525 10.2183L16.4863 7.36279C16.5251 7.34066 16.5389 7.31852 16.5278 7.29639C16.5223 7.27979 16.4974 7.27148 16.4531 7.27148L11.4312 7.36279C11.2596 7.36833 11.1185 7.33512 11.0078 7.26318C10.8971 7.18571 10.8169 7.0612 10.7671 6.88965L9.32275 2.0835C9.31169 2.03923 9.29508 2.01709 9.27295 2.01709C9.25635 2.01709 9.24251 2.03923 9.23145 2.0835L7.78711 6.88965C7.7373 7.0612 7.65706 7.18571 7.54639 7.26318C7.43571 7.33512 7.2946 7.36833 7.12305 7.36279L2.10107 7.27148C2.0568 7.27148 2.0319 7.27979 2.02637 7.29639C2.0153 7.31852 2.02913 7.34066 2.06787 7.36279L6.20166 10.2183C6.29574 10.2847 6.36768 10.3594 6.41748 10.4424C6.46729 10.5199 6.49219 10.6056 6.49219 10.6997C6.49772 10.7938 6.48112 10.8934 6.44238 10.9985L4.79053 15.7466C4.77946 15.7853 4.77946 15.8102 4.79053 15.8213Z" fill="white"/>
</g>
</svg>
