<svg width="108" height="100" viewBox="0 0 108 100" fill="none" xmlns="http://www.w3.org/2000/svg">
<g clip-path="url(#clip0_15_489)">
<path d="M3.23446 89.6166C12.6931 90.5336 39.647 93.4608 44.0672 79.6326C45.9064 73.8787 45.1722 64.9383 41.3549 59.8955C33.1572 49.0662 13.0889 55.2066 24.7334 68.8448C31.2639 76.4933 43.8977 75.094 52.8303 73.98C65.9975 72.3377 74.1784 64.423 82.1097 54.5407C86.1375 49.522 99.447 22.1679 97.5163 22.563" stroke="#0B1227" stroke-width="3.71545" stroke-linecap="round"/>
<path d="M103.731 13.1505C101.759 13.6263 86.7792 17.756 88.5411 17.0127C90.8471 16.0397 93.3265 15.2745 95.497 14.0213C98.0649 12.5387 100.967 11.7263 103.352 9.97163C105.445 8.43191 105.027 22.0955 104.407 24.4095" stroke="#0B1227" stroke-width="3.71545" stroke-linecap="round"/>
</g>
<defs>
<clipPath id="clip0_15_489">
<rect width="108" height="100" fill="white"/>
</clipPath>
</defs>
</svg>
