<svg width="108" height="100" viewBox="0 0 108 100" fill="none" xmlns="http://www.w3.org/2000/svg">
<g clip-path="url(#clip0_89_8160)">
<path d="M3.23348 89.6166C12.6921 90.5336 39.646 93.4608 44.0662 79.6326C45.9054 73.8787 45.1713 64.9383 41.3539 59.8955C33.1562 49.0662 13.0879 55.2066 24.7324 68.8448C31.2629 76.4933 43.8967 75.094 52.8293 73.98C65.9965 72.3377 74.1775 64.423 82.1087 54.5407C86.1366 49.522 99.446 22.1679 97.5154 22.563" stroke="white" stroke-width="3.71545" stroke-linecap="round"/>
<path d="M103.731 13.1505C101.759 13.6263 86.7792 17.756 88.5411 17.0127C90.8471 16.0397 93.3265 15.2745 95.497 14.0213C98.0649 12.5387 100.967 11.7263 103.352 9.97163C105.445 8.43191 105.027 22.0955 104.407 24.4095" stroke="white" stroke-width="3.71545" stroke-linecap="round"/>
</g>
<defs>
<clipPath id="clip0_89_8160">
<rect width="108" height="100" fill="white"/>
</clipPath>
</defs>
</svg>
