<svg width="20" height="20" viewBox="0 0 20 20" fill="none" xmlns="http://www.w3.org/2000/svg">
<path d="M3.33398 6.6665C3.33398 4.30948 3.33398 3.13097 4.06622 2.39874C4.79845 1.6665 5.97696 1.6665 8.33398 1.6665H11.6673C14.0243 1.6665 15.2028 1.6665 15.9351 2.39874C16.6673 3.13097 16.6673 4.30948 16.6673 6.6665V13.3332C16.6673 15.6902 16.6673 16.8687 15.9351 17.6009C15.2028 18.3332 14.0243 18.3332 11.6673 18.3332H8.33398C5.97696 18.3332 4.79845 18.3332 4.06622 17.6009C3.33398 16.8687 3.33398 15.6902 3.33398 13.3332V6.6665Z" stroke="#0B1227" stroke-width="1.5"/>
<path d="M16.5822 13.3335H6.58213C5.80716 13.3335 5.41967 13.3335 5.10175 13.4187C4.23902 13.6498 3.56515 14.3237 3.33398 15.1864" stroke="#0B1227" stroke-width="1.5"/>
<path d="M6.66602 5.8335H13.3327" stroke="#0B1227" stroke-width="1.5" stroke-linecap="round"/>
<path d="M6.66602 8.75H10.8327" stroke="#0B1227" stroke-width="1.5" stroke-linecap="round"/>
</svg>
