<svg width="20" height="20" viewBox="0 0 20 20" fill="none" xmlns="http://www.w3.org/2000/svg">
<path fill-rule="evenodd" clip-rule="evenodd" d="M9.9987 0.833008C4.93609 0.833008 0.832031 4.93706 0.832031 9.99967C0.832031 15.0623 4.93609 19.1663 9.9987 19.1663C15.0613 19.1663 19.1654 15.0623 19.1654 9.99967C19.1654 4.93706 15.0613 0.833008 9.9987 0.833008ZM14.338 8.08893C14.6634 7.76349 14.6634 7.23586 14.338 6.91042C14.0125 6.58498 13.4849 6.58498 13.1594 6.91042L8.7487 11.3212L6.83795 9.41042C6.51252 9.08498 5.98488 9.08498 5.65944 9.41042C5.334 9.73586 5.334 10.2635 5.65944 10.5889L8.15944 13.0889C8.48488 13.4144 9.01252 13.4144 9.33795 13.0889L14.338 8.08893Z" fill="white"/>
</svg>
