<svg width="24" height="24" viewBox="0 0 24 24" fill="none" xmlns="http://www.w3.org/2000/svg">
<path d="M8.34536 3.97644C9.8231 1.32549 10.562 0 11.6667 0C12.7714 0 13.5102 1.32547 14.9879 3.97643L15.3703 4.66227C15.7903 5.41559 16.0001 5.79225 16.3276 6.04078C16.655 6.2893 17.0626 6.38155 17.8781 6.56606L18.6206 6.73403C21.4901 7.38332 22.925 7.70796 23.2664 8.80569C23.6077 9.90337 22.6296 11.0473 20.6732 13.3349L20.1671 13.9267C19.6112 14.5768 19.3332 14.9018 19.2081 15.304C19.0832 15.7061 19.1252 16.1398 19.2092 17.0072L19.2857 17.7968C19.5815 20.849 19.7294 22.3752 18.8357 23.0536C17.9419 23.732 16.5985 23.1134 13.9117 21.8764L13.2166 21.5563C12.4531 21.2048 12.0714 21.0289 11.6667 21.0289C11.262 21.0289 10.8802 21.2048 10.1168 21.5563L9.42165 21.8764C6.7348 23.1134 5.39138 23.732 4.49768 23.0536C3.60398 22.3752 3.75186 20.849 4.04764 17.7968L4.12415 17.0072C4.2082 16.1398 4.25023 15.7061 4.12517 15.304C4.00013 14.9018 3.72217 14.5768 3.16624 13.9267L2.66012 13.3349C0.703794 11.0473 -0.274374 9.90337 0.0669923 8.80569C0.408359 7.70796 1.84317 7.38332 4.7128 6.73403L5.45521 6.56606C6.27066 6.38155 6.67839 6.2893 7.00577 6.04078C7.33314 5.79225 7.54312 5.4156 7.96305 4.66227L8.34536 3.97644Z" fill="#92959E"/>
</svg>
